<?xml version="1.0" standalone="no"?>
<!DOCTYPE svg PUBLIC "-//W3C//DTD SVG 20010904//EN"
 "http://www.w3.org/TR/2001/REC-SVG-20010904/DTD/svg10.dtd">
<svg version="1.0" xmlns="http://www.w3.org/2000/svg"
 width="586.000000pt" height="505.000000pt" viewBox="0 0 586.000000 505.000000"
 preserveAspectRatio="xMidYMid meet">

<g transform="translate(0.000000,505.000000) scale(0.100000,-0.100000)"
fill="#000000" stroke="none">
<path d="M2820 4904 c-127 -64 -230 -120 -230 -125 0 -12 75 -54 752 -418
l616 -331 247 127 c136 71 248 132 249 136 0 5 -105 63 -234 131 -654 341
-1151 596 -1160 596 -6 0 -114 -52 -240 -116z"/>
<path d="M2461 4721 l-34 -18 89 -50 c203 -114 896 -489 1171 -634 l121 -64
36 18 c40 19 44 27 19 43 -95 58 -1344 724 -1358 724 -5 -1 -25 -9 -44 -19z"/>
<path d="M2002 4480 l-363 -188 708 -357 708 -357 317 158 c175 87 327 166
339 175 22 16 21 17 -47 56 -38 22 -323 176 -634 343 -311 166 -587 315 -615
330 l-50 28 -363 -188z"/>
<path d="M1610 4087 c0 -84 -3 -157 -7 -160 -3 -4 -35 9 -70 29 l-63 35 -220
-113 c-121 -62 -227 -119 -237 -126 -22 -16 -56 5 292 -186 278 -153 305 -170
305 -193 0 -32 -45 -11 -444 205 l-240 130 -43 -21 c-24 -12 -40 -24 -36 -28
5 -4 123 -69 263 -144 488 -263 500 -270 500 -307 0 -10 -1 -18 -3 -18 -4 0
-163 84 -538 286 -158 85 -290 154 -293 154 -9 0 -699 -360 -709 -370 -5 -4
309 -168 697 -364 l705 -356 122 60 c129 63 149 69 169 45 10 -12 -9 -25 -124
-82 l-136 -68 0 -788 0 -787 38 19 c20 10 42 19 47 20 6 1 12 -35 15 -81 l5
-82 662 -383 661 -383 661 382 661 383 0 127 c0 89 3 128 11 128 7 0 61 -27
122 -61 61 -33 118 -61 127 -62 22 -1 178 86 810 452 l515 298 3 774 2 774
-665 385 -665 385 0 117 c0 64 -4 119 -8 122 -4 2 -323 -154 -707 -348 l-700
-354 -3 -251 c-1 -167 -6 -251 -13 -251 -6 0 -19 5 -30 10 -18 10 -19 24 -19
250 l0 240 -702 352 c-387 194 -706 354 -710 356 -5 2 -8 -66 -8 -151z m709
-447 l521 -259 0 -51 c0 -48 -1 -50 -20 -40 -12 6 -25 21 -30 34 -6 16 -55 47
-162 103 -204 108 -766 380 -803 389 -17 4 -38 14 -47 22 -27 23 -22 62 7 62
7 0 247 -117 534 -260z m2786 -156 c231 -133 458 -264 505 -291 l85 -49 3
-610 c2 -335 0 -646 -3 -690 l-7 -82 -201 -118 c-587 -343 -971 -564 -977
-562 -4 2 -61 35 -128 73 l-122 70 0 47 0 47 103 -59 102 -59 8 29 c4 15 6
293 5 616 l-3 587 -525 303 c-289 167 -528 304 -532 304 -5 0 -8 -42 -8 -94 0
-52 -4 -97 -8 -100 -5 -3 -23 4 -40 15 l-33 19 3 132 3 132 405 234 c223 129
488 281 589 338 l185 104 85 -47 c47 -26 275 -156 506 -289z m-2267 -286 c4
-19 -26 -51 -39 -43 -13 9 -11 39 3 53 15 15 32 10 36 -10z m-227 -116 l22
-19 -29 -10 c-22 -8 -38 -7 -60 2 l-29 12 30 16 c38 21 38 21 66 -1z m398
-189 c146 -80 1019 -588 1059 -615 l42 -29 0 -683 0 -684 -367 -213 c-692
-401 -794 -459 -809 -459 -21 0 -814 449 -1099 622 l-90 54 -3 615 c-2 338 0
646 3 685 l6 72 252 148 c334 196 878 509 897 517 29 11 44 7 109 -30z"/>
<path d="M4450 3693 c-107 -60 -716 -411 -845 -487 -66 -40 -120 -78 -120 -86
0 -18 70 -62 589 -362 380 -220 432 -248 455 -240 66 23 1031 585 1031 600 0
10 -698 420 -970 569 l-75 42 -65 -36z"/>
<path d="M5410 2923 c-113 -64 -349 -200 -525 -303 l-320 -187 -3 -618 -2
-617 22 14 c13 8 251 146 531 308 l507 293 0 614 c0 337 -1 613 -2 613 -2 -1
-95 -53 -208 -117z"/>
<path d="M2725 2733 c-318 -183 -777 -454 -813 -478 -25 -17 -29 -25 -20 -32
20 -16 908 -533 1029 -599 8 -5 482 265 808 459 246 147 253 152 231 167 -24
16 -860 501 -970 563 l-65 36 -200 -116z"/>
<path d="M1825 2138 c-3 -7 -4 -283 -3 -612 l3 -599 524 -304 c288 -167 526
-301 530 -298 3 4 7 280 9 614 l2 607 -187 109 c-524 304 -858 495 -865 495
-5 0 -11 -6 -13 -12z"/>
<path d="M3810 2034 c-113 -64 -297 -171 -410 -239 -113 -67 -256 -150 -317
-185 l-113 -64 0 -602 c0 -400 3 -605 10 -609 12 -8 28 1 575 318 237 137 440
258 453 270 l22 20 0 604 c0 332 -3 603 -7 603 -5 0 -100 -53 -213 -116z"/>
<path d="M20 2452 l0 -759 665 -362 c365 -199 685 -374 710 -387 l45 -26 0
789 0 788 -710 358 -710 359 0 -760z m704 159 l526 -260 0 -213 c0 -117 -4
-219 -9 -227 -7 -10 -16 -11 -37 -4 -39 14 -462 217 -774 371 l-255 127 0 215
c0 191 4 250 19 250 2 0 241 -117 530 -259z m474 -1077 l172 -95 0 -184 c0
-101 -3 -186 -7 -188 -5 -2 -92 42 -195 97 l-188 100 0 182 c0 99 3 184 7 188
10 10 19 5 211 -100z"/>
<path d="M236 2773 c-3 -8 -6 -86 -6 -174 l0 -159 203 -101 c111 -56 329 -164
485 -240 l282 -138 0 178 0 177 -479 236 c-370 182 -481 232 -485 221z m474
-394 c230 -115 300 -155 298 -168 -3 -10 -12 -15 -28 -13 -26 3 -551 258 -584
284 -19 15 -17 48 3 48 6 0 146 -68 311 -151z"/>
</g>
</svg>
